{
    "asset": {
        "version": "2.0",
        "generator": "Open Asset Import Library (assimp v5.2.cf7d3637)"
    },
    "extensionsUsed": [
        "KHR_materials_volume",
        "FB_ngon_encoding"
    ],
    "accessors": [
        {
            "bufferView": 0,
            "byteOffset": 0,
            "componentType": 5126,
            "count": 5664,
            "type": "VEC3",
            "max": [
                2.1145782470703127,
                1.6989599466323853,
                6.813457489013672
            ],
            "min": [
                0.16645193099975587,
                0.25279659032821658,
                -5.8491411209106449
            ]
        },
        {
            "bufferView": 1,
            "byteOffset": 0,
            "componentType": 5126,
            "count": 5664,
            "type": "VEC3",
            "max": [
                0.9998637437820435,
                0.9957606196403503,
                0.9985511898994446
            ],
            "min": [
                -0.9999265074729919,
                -0.9957531094551086,
                -0.9984638094902039
            ]
        },
        {
            "bufferView": 2,
            "byteOffset": 0,
            "componentType": 5126,
            "count": 5664,
            "type": "VEC2",
            "max": [
                1.0,
                1.0
            ],
            "min": [
                0.0,
                0.0
            ]
        },
        {
            "bufferView": 3,
            "byteOffset": 0,
            "componentType": 5125,
            "count": 5664,
            "type": "SCALAR",
            "max": [
                5663
            ],
            "min": [
                0
            ]
        }
    ],
    "buffers": [
        {
            "byteLength": 203904,
            "uri": "result.bin"
        }
    ],
    "bufferViews": [
        {
            "buffer": 0,
            "byteOffset": 0,
            "byteLength": 67968,
            "target": 34962
        },
        {
            "buffer": 0,
            "byteOffset": 67968,
            "byteLength": 67968,
            "target": 34962
        },
        {
            "buffer": 0,
            "byteOffset": 135936,
            "byteLength": 45312,
            "target": 34962
        },
        {
            "buffer": 0,
            "byteOffset": 181248,
            "byteLength": 22656,
            "target": 34963
        }
    ],
    "materials": [
        {
            "name": "material"
        }
    ],
    "meshes": [
        {
            "name": "Text.022",
            "primitives": [
                {
                    "mode": 4,
                    "material": 0,
                    "indices": 3,
                    "attributes": {
                        "POSITION": 0,
                        "NORMAL": 1,
                        "TEXCOORD_0": 2
                    }
                }
            ]
        }
    ],
    "nodes": [
        {
            "name": "Text.022",
            "mesh": 0
        }
    ],
    "scenes": [
        {
            "nodes": [
                0
            ]
        }
    ],
    "scene": 0
}